<svg width="204" height="97" viewBox="0 0 204 97" fill="none" xmlns="http://www.w3.org/2000/svg">
<path d="M169.226 63.6779C184.263 63.6779 196.453 51.4881 196.453 36.4513C196.453 21.4145 184.263 9.2247 169.226 9.2247C154.189 9.2247 142 21.4145 142 36.4513C142 51.4881 154.189 63.6779 169.226 63.6779Z" fill="#598889"/>
<path d="M169.226 63.6779C184.263 63.6779 196.453 51.4881 196.453 36.4513C196.453 21.4145 184.263 9.2247 169.226 9.2247C154.189 9.2247 142 21.4145 142 36.4513C142 51.4881 154.189 63.6779 169.226 63.6779Z" fill="#598889"/>
<path d="M199.78 36.4841H192.408C192.408 36.473 192.408 36.4622 192.408 36.4511C192.408 23.648 182.029 13.2688 169.226 13.2688C160.843 13.2688 153.499 17.7193 149.427 24.3861H142.119C140.85 24.3861 139.812 25.4244 139.812 26.6932C139.812 27.4005 140.135 28.0353 140.64 28.4595H139.057C137.328 28.4595 135.913 29.874 135.913 31.603C135.913 33.3319 137.328 34.7464 139.057 34.7464H146.107C146.066 35.3094 146.044 35.8776 146.044 36.451C146.044 37.7754 146.156 39.0731 146.37 40.3367H140.594C138.865 40.3367 137.45 41.2959 137.45 42.4681C137.45 43.6402 138.865 44.5993 140.594 44.5993H147.518C150.816 53.3824 159.291 59.6334 169.226 59.6334C175.666 59.6334 181.491 57.0071 185.692 52.768H195.307C196.576 52.768 197.614 51.7296 197.614 50.4607C197.614 49.1918 196.576 48.1536 195.307 48.1536H189.241C189.901 47.0262 190.469 45.8377 190.934 44.5993H196.372C198.1 44.5993 199.515 43.6402 199.515 42.4681C199.515 41.9476 199.236 41.4694 198.774 41.0983H199.78C201.049 41.0983 202.087 40.06 202.087 38.7911C202.087 37.5222 201.048 36.4841 199.78 36.4841Z" fill="#5AA096"/>
<path d="M199.779 36.4841H192.408C192.408 36.473 192.408 36.4622 192.408 36.4511C192.408 23.648 182.029 13.2688 169.226 13.2688C160.843 13.2688 153.499 17.7193 149.427 24.3861H142.119C140.85 24.3861 139.812 25.4244 139.812 26.6932C139.812 27.9621 140.851 29.0004 142.119 29.0004H147.267C146.474 31.3388 146.044 33.8447 146.044 36.451C146.044 49.2542 156.423 59.6334 169.226 59.6334C175.666 59.6334 181.491 57.0071 185.692 52.768H195.307C196.576 52.768 197.614 51.7296 197.614 50.4607C197.614 49.1918 196.576 48.1536 195.307 48.1536H189.241C190.503 45.9993 191.428 43.6238 191.942 41.0983H199.779C201.048 41.0983 202.087 40.06 202.087 38.7911C202.087 37.5222 201.048 36.4841 199.779 36.4841Z" fill="#466C6F"/>
<path d="M169.226 56.4602C158.193 56.4602 149.217 47.4843 149.217 36.4511C149.217 25.4182 158.193 16.4421 169.226 16.4421C180.259 16.4421 189.235 25.4181 189.235 36.4511C189.235 47.4842 180.259 56.4602 169.226 56.4602ZM169.226 18.3563C159.249 18.3563 151.131 26.4737 151.131 36.4513C151.131 46.4289 159.249 54.5463 169.226 54.5463C179.204 54.5463 187.321 46.429 187.321 36.4513C187.321 26.4737 179.204 18.3563 169.226 18.3563Z" fill="#5AA096"/>
<path d="M169.226 51.3555C161.008 51.3555 154.322 44.6696 154.322 36.4511C154.322 28.233 161.008 21.5469 169.226 21.5469C177.444 21.5469 184.13 28.2328 184.13 36.4511C184.13 44.6696 177.444 51.3555 169.226 51.3555ZM169.226 23.4611C162.063 23.4611 156.236 29.2884 156.236 36.4513C156.236 43.6142 162.063 49.4416 169.226 49.4416C176.389 49.4416 182.216 43.6142 182.216 36.4513C182.216 29.2884 176.389 23.4611 169.226 23.4611Z" fill="#5AA096"/>
<path d="M169.213 45.8571C174.23 45.8571 178.296 41.7907 178.296 36.7745C178.296 31.7583 174.23 27.6918 169.213 27.6918C164.197 27.6918 160.131 31.7583 160.131 36.7745C160.131 41.7907 164.197 45.8571 169.213 45.8571Z" fill="#2F485E"/>
<path d="M154.697 56.2897C156.19 56.2897 157.4 55.0794 157.4 53.5864C157.4 52.0934 156.19 50.883 154.697 50.883C153.204 50.883 151.993 52.0934 151.993 53.5864C151.993 55.0794 153.204 56.2897 154.697 56.2897Z" fill="#E0E0E0"/>
<path d="M183.901 34.3517C185.394 34.3517 186.604 33.1414 186.604 31.6483C186.604 30.1553 185.394 28.945 183.901 28.945C182.408 28.945 181.197 30.1553 181.197 31.6483C181.197 33.1414 182.408 34.3517 183.901 34.3517Z" fill="white"/>
<path d="M158.877 48.8003C159.515 48.8003 160.032 48.2829 160.032 47.6447C160.032 47.0065 159.515 46.4892 158.877 46.4892C158.239 46.4892 157.721 47.0065 157.721 47.6447C157.721 48.2829 158.239 48.8003 158.877 48.8003Z" fill="#FFD800"/>
<path d="M160.833 25.6047C161.471 25.6047 161.989 25.0873 161.989 24.4491C161.989 23.8109 161.471 23.2936 160.833 23.2936C160.195 23.2936 159.678 23.8109 159.678 24.4491C159.678 25.0873 160.195 25.6047 160.833 25.6047Z" fill="#52C9D5"/>
<path d="M189.21 18.7016C190.703 18.7016 191.914 17.4913 191.914 15.9983C191.914 14.5053 190.703 13.295 189.21 13.295C187.717 13.295 186.507 14.5053 186.507 15.9983C186.507 17.4913 187.717 18.7016 189.21 18.7016Z" fill="#66B2B2"/>
<path d="M150.435 19.1491C151.928 19.1491 153.139 17.9388 153.139 16.4458C153.139 14.9528 151.928 13.7424 150.435 13.7424C148.942 13.7424 147.732 14.9528 147.732 16.4458C147.732 17.9388 148.942 19.1491 150.435 19.1491Z" fill="#66B2B2"/>
<path d="M178.337 17.5336C179.83 17.5336 181.041 16.3233 181.041 14.8303C181.041 13.3373 179.83 12.127 178.337 12.127C176.844 12.127 175.634 13.3373 175.634 14.8303C175.634 16.3233 176.844 17.5336 178.337 17.5336Z" fill="#66B2B2"/>
<path d="M181.345 63.0632C182.838 63.0632 184.048 61.8528 184.048 60.3598C184.048 58.8668 182.838 57.6565 181.345 57.6565C179.852 57.6565 178.642 58.8668 178.642 60.3598C178.642 61.8528 179.852 63.0632 181.345 63.0632Z" fill="#66B2B2"/>
<path d="M191.027 56.7087C192.52 56.7087 193.73 55.4985 193.73 54.0055C193.73 52.5126 192.52 51.3023 191.027 51.3023C189.534 51.3023 188.324 52.5126 188.324 54.0055C188.324 55.4985 189.534 56.7087 191.027 56.7087Z" fill="#66B2B2"/>
<path d="M140.712 60.8173C141.35 60.8173 141.867 60.2999 141.867 59.6617C141.867 59.0236 141.35 58.5062 140.712 58.5062C140.073 58.5062 139.556 59.0236 139.556 59.6617C139.556 60.2999 140.073 60.8173 140.712 60.8173Z" fill="#66B2B2"/>
<path d="M175.225 53.132C175.864 53.132 176.381 52.6147 176.381 51.9765C176.381 51.3383 175.864 50.821 175.225 50.821C174.587 50.821 174.07 51.3383 174.07 51.9765C174.07 52.6147 174.587 53.132 175.225 53.132Z" fill="#66B2B2"/>
<path d="M141.829 17.2208C142.468 17.2208 142.985 16.7035 142.985 16.0653C142.985 15.4271 142.468 14.9097 141.829 14.9097C141.191 14.9097 140.674 15.4271 140.674 16.0653C140.674 16.7035 141.191 17.2208 141.829 17.2208Z" fill="#66B2B2"/>
<path d="M197.583 20.9936C198.221 20.9936 198.738 20.4762 198.738 19.838C198.738 19.1999 198.221 18.6825 197.583 18.6825C196.945 18.6825 196.427 19.1999 196.427 19.838C196.427 20.4762 196.945 20.9936 197.583 20.9936Z" fill="#66B2B2"/>
<path d="M180.256 38.4601C180.894 38.4601 181.411 37.9427 181.411 37.3045C181.411 36.6663 180.894 36.149 180.256 36.149C179.618 36.149 179.1 36.6663 179.1 37.3045C179.1 37.9427 179.618 38.4601 180.256 38.4601Z" fill="#66B2B2"/>
<path d="M169.226 40.4234C171.42 40.4234 173.198 38.645 173.198 36.4513C173.198 34.2576 171.42 32.4792 169.226 32.4792C167.032 32.4792 165.254 34.2576 165.254 36.4513C165.254 38.645 167.032 40.4234 169.226 40.4234Z" fill="#FF7143"/>
<path d="M169.28 32.4794C169.262 32.4792 169.244 32.4801 169.226 32.4801L169.119 40.4208C169.137 40.4213 169.154 40.4227 169.173 40.4229C171.366 40.4525 173.168 38.6984 173.198 36.5049C173.227 34.3113 171.473 32.5091 169.28 32.4794Z" fill="#E5603C"/>
<path d="M190.903 24.5057L191.613 25.9443L193.2 26.1748L192.051 27.2945L192.322 28.8755L190.903 28.1291L189.483 28.8755L189.754 27.2945L188.605 26.1748L190.193 25.9443L190.903 24.5057Z" fill="#FFD326"/>
<path d="M140.727 47.4745L141.437 48.913L143.024 49.1436L141.876 50.2633L142.147 51.8443L140.727 51.0978L139.307 51.8443L139.578 50.2633L138.43 49.1436L140.017 48.913L140.727 47.4745Z" fill="#FFD326"/>
<path d="M153.305 6.32214L154.015 7.7607L155.602 7.99121L154.454 9.11093L154.725 10.6919L153.305 9.94546L151.885 10.6919L152.156 9.11093L151.008 7.99121L152.595 7.7607L153.305 6.32214Z" fill="#FFD326"/>
<path d="M27.408 49.936C27.824 50.864 27.84 51.776 27.456 52.672C27.072 53.536 26.464 54.336 25.632 55.072C24.8 55.808 23.84 56.448 22.752 56.992C21.696 57.536 20.688 57.92 19.728 58.144C18.672 58.368 17.552 58.464 16.368 58.432C15.216 58.432 14.048 58.288 12.864 58C11.712 57.744 10.576 57.36 9.456 56.848C8.368 56.304 7.36 55.648 6.432 54.88C5.312 53.952 4.432 52.848 3.792 51.568C3.184 50.256 2.736 48.864 2.448 47.392C2.16 45.92 2 44.448 1.968 42.976C1.968 41.472 2.016 40.064 2.112 38.752C2.208 37.568 2.448 36.336 2.832 35.056C3.216 33.776 3.744 32.528 4.416 31.312C5.12 30.064 5.952 28.912 6.912 27.856C7.904 26.8 9.056 25.904 10.368 25.168C11.36 24.592 12.464 24.208 13.68 24.016C14.928 23.792 16.176 23.744 17.424 23.872C18.704 23.968 19.904 24.24 21.024 24.688C22.176 25.104 23.152 25.68 23.952 26.416C24.464 26.864 24.992 27.488 25.536 28.288C26.112 29.088 26.528 29.904 26.784 30.736C27.04 31.568 27.04 32.352 26.784 33.088C26.56 33.792 25.92 34.272 24.864 34.528C24.416 34.656 24.016 34.688 23.664 34.624C23.312 34.528 22.992 34.384 22.704 34.192C22.416 33.968 22.144 33.712 21.888 33.424C21.632 33.136 21.392 32.848 21.168 32.56C20.4 31.632 19.504 31.008 18.48 30.688C17.456 30.336 16.432 30.256 15.408 30.448C14.416 30.608 13.472 31.024 12.576 31.696C11.712 32.336 11.04 33.168 10.56 34.192C10.048 35.28 9.632 36.48 9.312 37.792C9.024 39.072 8.864 40.384 8.832 41.728C8.8 43.04 8.912 44.32 9.168 45.568C9.456 46.816 9.936 47.92 10.608 48.88C11.12 49.648 11.744 50.272 12.48 50.752C13.248 51.232 14.064 51.568 14.928 51.76C15.792 51.952 16.656 51.984 17.52 51.856C18.416 51.728 19.28 51.44 20.112 50.992C20.368 50.864 20.64 50.688 20.928 50.464C21.248 50.208 21.568 49.952 21.888 49.696C22.208 49.44 22.528 49.2 22.848 48.976C23.2 48.752 23.568 48.592 23.952 48.496C24.528 48.304 25.152 48.32 25.824 48.544C26.528 48.768 27.056 49.232 27.408 49.936ZM56.3599 55.888C56.3919 56.208 56.3599 56.512 56.2639 56.8C56.1999 56.992 56.1039 57.152 55.9759 57.28C55.8799 57.408 55.7519 57.536 55.5919 57.664C55.3039 57.856 54.9519 58.032 54.5359 58.192C54.2799 58.256 54.0239 58.304 53.7679 58.336C53.5439 58.4 53.3039 58.4 53.0479 58.336C52.5359 58.304 52.0879 58.112 51.7039 57.76C51.1599 57.312 50.7119 56.816 50.3599 56.272C50.1999 56.016 50.0239 55.728 49.8319 55.408C49.6399 55.088 49.4639 54.752 49.3039 54.4L43.9759 44.272C43.7199 44.272 43.4639 44.288 43.2079 44.32C42.9519 44.32 42.6959 44.336 42.4399 44.368C41.7679 44.432 41.1279 44.448 40.5199 44.416C39.9439 44.384 39.3359 44.384 38.6959 44.416H37.7839V53.104C37.7839 53.36 37.7679 53.6 37.7359 53.824C37.7359 54.048 37.7359 54.288 37.7359 54.544C37.7359 54.704 37.7199 54.912 37.6879 55.168C37.6879 55.424 37.6719 55.664 37.6399 55.888C37.5759 56.24 37.4319 56.608 37.2079 56.992C36.9839 57.344 36.6799 57.648 36.2959 57.904C35.6239 58.32 34.8079 58.432 33.8479 58.24C33.4319 58.144 33.0319 57.984 32.6479 57.76C32.5199 57.664 32.4079 57.552 32.3119 57.424C32.2159 57.264 32.1359 57.104 32.0719 56.944C32.0079 56.784 31.9439 56.624 31.8799 56.464C31.8479 56.272 31.7999 56.096 31.7359 55.936C31.6399 55.616 31.5919 55.312 31.5919 55.024V27.76C31.5919 27.568 31.5919 27.376 31.5919 27.184C31.6239 26.96 31.6559 26.768 31.6879 26.608C31.7199 26.256 31.8319 25.904 32.0239 25.552C32.1199 25.168 32.2799 24.896 32.5039 24.736C32.6959 24.544 32.9839 24.384 33.3679 24.256C33.7839 24.096 34.3759 24.032 35.1439 24.064C36.5839 24.096 38.0079 24.112 39.4159 24.112C40.8239 24.112 42.2319 24.144 43.6399 24.208C44.5679 24.272 45.5439 24.384 46.5679 24.544C47.6239 24.672 48.5999 24.912 49.4959 25.264C50.0719 25.488 50.5999 25.712 51.0799 25.936C51.6879 26.288 52.1679 26.624 52.5199 26.944C53.6399 27.968 54.4879 29.2 55.0639 30.64C55.6399 32.08 55.9279 33.536 55.9279 35.008C55.9279 36.736 55.5119 38.32 54.6799 39.76C53.8799 41.2 52.5839 42.272 50.7919 42.976C50.7279 43.04 50.6319 43.088 50.5039 43.12C50.4079 43.12 50.3279 43.136 50.2639 43.168L54.6799 52.048L55.1119 52.816C55.1759 52.944 55.2559 53.088 55.3519 53.248C55.4479 53.408 55.5279 53.568 55.5919 53.728C55.6879 53.888 55.7679 54.064 55.8319 54.256C55.9279 54.448 56.0239 54.624 56.1199 54.784C56.2159 55.232 56.2959 55.6 56.3599 55.888ZM44.3599 38.8C44.9359 38.8 45.4799 38.704 45.9919 38.512C46.5359 38.288 47.0159 38 47.4319 37.648C47.8799 37.296 48.2479 36.896 48.5359 36.448C48.8239 35.968 48.9839 35.456 49.0159 34.912C49.1439 33.312 48.7279 32.128 47.7679 31.36C46.8079 30.56 45.5439 30.128 43.9759 30.064C43.0479 30 42.0239 29.968 40.9039 29.968C39.8159 29.968 38.7759 29.968 37.7839 29.968C37.8159 31.28 37.8159 32.624 37.7839 34C37.7839 35.344 37.7839 36.944 37.7839 38.8H44.3599ZM84.1346 26.08C84.1666 26.24 84.1666 26.4 84.1346 26.56C84.1346 26.72 84.0866 26.896 83.9906 27.088C83.8626 27.536 83.7186 27.936 83.5586 28.288C83.3666 28.736 83.1266 29.12 82.8386 29.44C82.7106 29.632 82.5826 29.824 82.4546 30.016C82.3586 30.176 82.2626 30.336 82.1666 30.496L81.5426 31.312L75.3986 40.192L74.2946 41.584V54.352C74.2306 54.512 74.1986 54.672 74.1986 54.832C74.1986 54.992 74.1826 55.168 74.1506 55.36C74.0866 55.52 74.0386 55.68 74.0066 55.84C73.9746 55.968 73.9266 56.112 73.8626 56.272C73.7986 56.4 73.7666 56.496 73.7666 56.56C73.7346 56.624 73.7026 56.672 73.6706 56.704C73.6706 56.736 73.6546 56.784 73.6226 56.848C73.4306 57.168 73.1586 57.456 72.8066 57.712C72.1026 58.064 71.3026 58.144 70.4066 57.952C69.8946 57.888 69.5106 57.728 69.2546 57.472C69.0946 57.376 68.9666 57.264 68.8706 57.136C68.7746 57.008 68.6786 56.864 68.5826 56.704C68.5186 56.512 68.4546 56.336 68.3906 56.176C68.3266 56.016 68.2786 55.856 68.2466 55.696C68.1826 55.536 68.1506 55.392 68.1506 55.264C68.1506 55.104 68.1506 54.96 68.1506 54.832V41.728L67.0946 40.096L60.8546 31.264L60.3266 30.4C60.1346 30.112 59.8946 29.776 59.6066 29.392C59.3506 29.04 59.1266 28.656 58.9346 28.24C58.8066 28.048 58.6946 27.856 58.5986 27.664C58.5346 27.44 58.4706 27.216 58.4066 26.992C58.3106 26.672 58.2946 26.352 58.3586 26.032C58.4546 25.616 58.6466 25.264 58.9346 24.976C59.2546 24.688 59.5906 24.464 59.9426 24.304C60.3906 23.984 60.9026 23.856 61.4786 23.92C61.8306 23.92 62.1346 23.984 62.3906 24.112C62.6466 24.24 62.9026 24.384 63.1586 24.544C63.4466 24.768 63.7186 25.008 63.9746 25.264C64.2626 25.52 64.5186 25.792 64.7426 26.08C64.9986 26.4 65.2386 26.704 65.4626 26.992C65.6866 27.248 65.9106 27.552 66.1346 27.904L66.2786 28.096C67.0466 29.12 67.7666 30.112 68.4386 31.072C69.1106 32 69.8146 33.008 70.5506 34.096C70.6146 34.16 70.7106 34.288 70.8386 34.48C70.9666 34.672 71.1106 34.896 71.2706 35.152C71.3986 34.928 71.5106 34.736 71.6066 34.576C71.7346 34.384 71.8306 34.256 71.8946 34.192C72.6306 33.104 73.3346 32.08 74.0066 31.12C74.6786 30.16 75.3986 29.168 76.1666 28.144L76.2626 27.952C76.5186 27.664 76.7426 27.376 76.9346 27.088C77.1586 26.768 77.3986 26.448 77.6546 26.128C78.0706 25.552 78.6306 25.056 79.3346 24.64C79.8466 24.288 80.3746 24.064 80.9186 23.968C81.5266 23.904 82.0546 24.032 82.5026 24.352C82.6946 24.48 82.8706 24.592 83.0306 24.688C83.2226 24.784 83.3826 24.896 83.5106 25.024C83.7666 25.312 83.9746 25.664 84.1346 26.08ZM108.813 27.04C110.029 28.16 110.925 29.504 111.501 31.072C112.077 32.608 112.301 34.144 112.173 35.68C112.045 37.152 111.581 38.512 110.781 39.76C109.981 40.976 108.765 41.904 107.133 42.544C105.853 43.088 104.589 43.472 103.341 43.696C102.093 43.92 100.717 44.096 99.2134 44.224C98.5414 44.288 97.9654 44.336 97.4854 44.368C97.0374 44.368 96.5094 44.384 95.9014 44.416C95.7734 44.416 95.5494 44.416 95.2294 44.416C94.9414 44.416 94.7334 44.432 94.6054 44.464V54.4C94.5094 55.008 94.3814 55.632 94.2214 56.272C94.0934 56.912 93.7254 57.408 93.1174 57.76C92.7654 57.952 92.3334 58.064 91.8214 58.096C91.3094 58.128 90.8454 58.112 90.4294 58.048C89.9814 57.984 89.5974 57.872 89.2774 57.712C88.9894 57.52 88.7494 57.2 88.5574 56.752C88.4294 56.464 88.3014 56.144 88.1734 55.792C88.0774 55.408 88.0294 54.944 88.0294 54.4V27.856C88.0294 27.632 88.0454 27.424 88.0774 27.232C88.1094 27.04 88.1414 26.848 88.1734 26.656C88.2374 26.496 88.2854 26.32 88.3174 26.128C88.3494 25.936 88.3974 25.76 88.4614 25.6C88.5254 25.44 88.5894 25.296 88.6534 25.168C88.7494 25.04 88.8614 24.928 88.9894 24.832C89.1494 24.672 89.3894 24.528 89.7094 24.4C90.0614 24.272 90.5734 24.208 91.2454 24.208H91.3414C92.3334 24.144 93.4374 24.096 94.6534 24.064C95.8694 24 96.8774 24.016 97.6774 24.112C98.1254 24.176 98.5414 24.224 98.9254 24.256C99.3094 24.256 99.6774 24.272 100.029 24.304C100.413 24.336 100.797 24.368 101.181 24.4C101.565 24.432 101.949 24.48 102.333 24.544C102.653 24.608 102.941 24.656 103.197 24.688C103.485 24.72 103.773 24.768 104.061 24.832C104.317 24.896 104.589 24.96 104.877 25.024C105.197 25.088 105.485 25.2 105.741 25.36C106.413 25.552 106.973 25.792 107.421 26.08C107.869 26.368 108.333 26.688 108.813 27.04ZM105.933 34.96C105.965 34.192 105.805 33.52 105.453 32.944C105.133 32.368 104.669 31.888 104.061 31.504C103.453 31.12 102.765 30.816 101.997 30.592C101.229 30.368 100.461 30.208 99.6934 30.112C99.5014 30.112 99.2294 30.112 98.8774 30.112C98.5574 30.08 98.2054 30.064 97.8214 30.064C97.4374 30.032 97.0694 30.016 96.7174 30.016C96.3974 29.984 96.1414 29.968 95.9494 29.968C95.7894 29.936 95.5974 29.92 95.3734 29.92C95.1494 29.92 94.8934 29.92 94.6054 29.92C94.6374 30.912 94.6534 31.872 94.6534 32.8C94.6534 33.696 94.6534 34.672 94.6534 35.728C94.6214 36.304 94.6054 36.88 94.6054 37.456C94.6054 38.032 94.6054 38.592 94.6054 39.136L97.5814 39.088C98.3494 39.088 99.1974 39.04 100.125 38.944C101.053 38.848 101.933 38.656 102.765 38.368C103.597 38.08 104.301 37.664 104.877 37.12C105.485 36.576 105.837 35.856 105.933 34.96ZM140.682 25.504C141.034 25.92 141.21 26.352 141.21 26.8C141.21 26.992 141.194 27.2 141.162 27.424C141.162 27.616 141.146 27.792 141.114 27.952C141.018 28.304 140.81 28.64 140.49 28.96C140.234 29.152 139.882 29.296 139.434 29.392C139.21 29.456 138.986 29.504 138.762 29.536C138.538 29.568 138.298 29.616 138.042 29.68C137.818 29.712 137.594 29.728 137.37 29.728C137.146 29.728 136.906 29.728 136.65 29.728H134.202C133.626 29.76 133.05 29.776 132.474 29.776C131.93 29.776 131.386 29.776 130.842 29.776C130.874 30.768 130.89 31.84 130.89 32.992C130.89 34.112 130.874 35.424 130.842 36.928C130.842 38.432 130.826 40.176 130.794 42.16C130.794 44.144 130.794 46.448 130.794 49.072V52.72C130.794 53.04 130.81 53.28 130.842 53.44C130.842 53.568 130.842 53.696 130.842 53.824C130.842 53.92 130.826 54.048 130.794 54.208C130.73 54.496 130.682 54.832 130.65 55.216C130.65 55.376 130.634 55.536 130.602 55.696C130.57 55.824 130.522 55.968 130.458 56.128C130.33 56.256 130.266 56.352 130.266 56.416L130.122 56.704C129.962 57.024 129.658 57.328 129.21 57.616C128.506 57.968 127.722 58.048 126.858 57.856C126.314 57.792 125.898 57.648 125.61 57.424C125.322 57.136 125.114 56.848 124.986 56.56C124.794 56.208 124.682 55.872 124.65 55.552C124.554 55.264 124.506 54.96 124.506 54.64V29.968C124.314 29.968 123.914 29.968 123.306 29.968C122.698 29.968 122.042 29.968 121.338 29.968C120.666 29.936 120.026 29.904 119.418 29.872C118.81 29.84 118.394 29.808 118.17 29.776C117.978 29.744 117.674 29.696 117.258 29.632C116.874 29.568 116.554 29.504 116.298 29.44C115.626 29.248 115.098 28.944 114.714 28.528C114.362 28.112 114.186 27.648 114.186 27.136C114.186 26.944 114.186 26.752 114.186 26.56C114.186 26.368 114.218 26.192 114.282 26.032C114.378 25.648 114.634 25.328 115.05 25.072C115.178 24.976 115.37 24.864 115.626 24.736C115.914 24.576 116.186 24.464 116.442 24.4C116.826 24.272 117.306 24.176 117.882 24.112C118.138 24.08 118.394 24.064 118.65 24.064C118.906 24.064 119.178 24.064 119.466 24.064C120.586 24.064 121.642 24.064 122.634 24.064C123.658 24.064 124.73 24.048 125.85 24.016C127.706 23.984 129.546 23.984 131.37 24.016C133.226 24.016 135.066 24.048 136.89 24.112C137.306 24.144 137.706 24.192 138.09 24.256C138.474 24.32 138.858 24.432 139.242 24.592C139.53 24.688 139.802 24.816 140.058 24.976C140.314 25.104 140.522 25.28 140.682 25.504Z" fill="white"/>
<path d="M82.796 79.96C82.796 81.016 82.364 82.036 81.5 83.02C80.66 83.98 79.544 84.748 78.152 85.324C76.76 85.924 75.308 86.224 73.796 86.224C72.764 86.224 72.068 86.128 71.708 85.936C71.348 85.744 71.168 85.48 71.168 85.144C71.168 84.928 71.444 84.556 71.996 84.028C72.548 83.476 72.92 83.2 73.112 83.2C73.4 83.2 73.544 83.26 73.544 83.38C73.544 83.476 73.484 83.572 73.364 83.668C73.244 83.764 73.184 83.848 73.184 83.92C73.184 84.016 73.328 84.112 73.616 84.208C73.928 84.304 74.3 84.352 74.732 84.352C75.74 84.352 76.748 84.172 77.756 83.812C78.788 83.428 79.628 82.936 80.276 82.336C80.924 81.736 81.248 81.1 81.248 80.428C81.248 79.78 81.044 79.264 80.636 78.88C80.228 78.496 79.712 78.22 79.088 78.052C78.488 77.86 77.468 77.596 76.028 77.26C74.444 76.9 73.208 76.588 72.32 76.324C71.456 76.036 70.76 75.688 70.232 75.28C69.704 74.848 69.44 74.308 69.44 73.66C69.44 72.508 70.004 71.452 71.132 70.492C72.26 69.532 73.556 68.776 75.02 68.224C76.484 67.672 77.612 67.396 78.404 67.396C79.22 67.396 79.628 67.636 79.628 68.116C79.628 68.404 79.532 68.728 79.34 69.088C79.148 69.424 78.86 69.592 78.476 69.592C78.332 69.592 78.176 69.544 78.008 69.448C77.84 69.328 77.672 69.268 77.504 69.268C77.024 69.268 76.268 69.424 75.236 69.736C74.204 70.048 73.268 70.516 72.428 71.14C71.588 71.764 71.168 72.52 71.168 73.408C71.168 73.984 71.492 74.416 72.14 74.704C72.812 74.968 74.048 75.304 75.848 75.712C76.064 75.784 76.28 75.844 76.496 75.892C76.712 75.916 76.904 75.952 77.072 76C78.92 76.432 80.336 76.924 81.32 77.476C82.304 78.028 82.796 78.856 82.796 79.96ZM101.815 76.36C101.815 78.064 100.711 79.384 98.5033 80.32C96.2953 81.256 93.4153 81.856 89.8633 82.12C89.8153 83.752 89.7913 85.084 89.7913 86.116C89.7913 87.484 89.8513 88.732 89.9713 89.86C90.0193 90.292 90.0433 90.592 90.0433 90.76C90.0433 91.144 89.9593 91.468 89.7913 91.732C89.6233 92.02 89.3833 92.164 89.0713 92.164C88.6393 92.164 88.3993 92.008 88.3513 91.696C88.3273 91.288 88.2913 90.652 88.2433 89.788C88.2193 88.948 88.2073 88.096 88.2073 87.232L88.2433 82.192C88.1233 82.192 87.8953 82.204 87.5593 82.228C87.2473 82.252 86.9353 82.264 86.6233 82.264C86.0473 82.264 85.7593 81.868 85.7593 81.076C85.7593 80.5 85.9033 80.212 86.1913 80.212C86.2873 80.212 86.5753 80.284 87.0553 80.428C87.5353 80.572 87.9433 80.644 88.2793 80.644L88.2433 70.456C88.0513 70.432 87.6553 70.396 87.0553 70.348C86.4553 70.276 86.0113 70.156 85.7233 69.988C85.4593 69.82 85.3273 69.58 85.3273 69.268C85.3273 68.644 85.4473 68.332 85.6873 68.332C85.9513 68.332 86.2753 68.428 86.6593 68.62C86.7073 68.644 86.8513 68.716 87.0913 68.836C87.3313 68.932 87.6673 69.004 88.0993 69.052C88.2433 68.668 88.3753 68.404 88.4953 68.26C88.6393 68.116 88.9033 68.044 89.2873 68.044C89.7673 68.044 90.0073 68.14 90.0073 68.332C90.0073 68.404 89.9713 68.536 89.8993 68.728C89.8273 68.896 89.7913 69.064 89.7913 69.232C91.2793 69.448 92.9593 69.892 94.8313 70.564C96.7273 71.212 98.3593 72.04 99.7273 73.048C101.119 74.056 101.815 75.16 101.815 76.36ZM100.267 76.504C100.267 75.496 99.6913 74.584 98.5393 73.768C97.3873 72.952 95.9953 72.28 94.3633 71.752C92.7553 71.224 91.2073 70.84 89.7193 70.6C89.7673 71.992 89.8033 73.84 89.8273 76.144C89.8513 78.424 89.8633 79.936 89.8633 80.68C91.3033 80.68 92.8393 80.5 94.4713 80.14C96.1033 79.756 97.4713 79.252 98.5753 78.628C99.7033 77.98 100.267 77.272 100.267 76.504ZM119.545 82.696C119.569 82.864 119.665 83.044 119.833 83.236C120.001 83.404 120.085 83.548 120.085 83.668C120.085 83.956 119.965 84.292 119.725 84.676C119.485 85.036 119.245 85.216 119.005 85.216C118.597 85.216 118.285 84.964 118.069 84.46C117.853 83.956 117.745 83.368 117.745 82.696C117.745 82.12 117.781 80.392 117.853 77.512L117.889 76.144C117.889 75.592 117.745 75.196 117.457 74.956C116.377 76.78 115.369 78.364 114.433 79.708C113.497 81.052 112.309 82.324 110.869 83.524C109.429 84.7 107.917 85.288 106.333 85.288C105.565 85.288 104.965 85.048 104.533 84.568C104.125 84.088 103.921 83.464 103.921 82.696C103.921 81.736 104.353 80.428 105.217 78.772C106.081 77.092 107.185 75.4 108.529 73.696C109.873 71.968 111.217 70.552 112.561 69.448C113.449 68.728 114.157 68.248 114.685 68.008C115.213 67.744 115.681 67.612 116.089 67.612C116.473 67.612 116.869 67.732 117.277 67.972C117.685 68.212 118.033 68.548 118.321 68.98C118.609 69.412 118.753 69.904 118.753 70.456C118.753 71.2 118.549 71.908 118.141 72.58L118.753 72.4C119.017 72.4 119.173 72.724 119.221 73.372C119.245 73.756 119.269 74.536 119.293 75.712C119.341 76.888 119.377 77.86 119.401 78.628C119.425 79.42 119.449 80.188 119.473 80.932C119.497 81.676 119.521 82.264 119.545 82.696ZM106.837 83.344C108.133 83.344 109.381 82.864 110.581 81.904C111.781 80.944 112.849 79.804 113.785 78.484C114.745 77.14 115.801 75.496 116.953 73.552C117.241 72.832 117.385 72.052 117.385 71.212C117.385 70.708 117.229 70.276 116.917 69.916C116.629 69.532 116.233 69.34 115.729 69.34C115.129 69.34 114.361 69.748 113.425 70.564C112.345 71.476 111.205 72.7 110.005 74.236C108.805 75.748 107.809 77.248 107.017 78.736C106.225 80.224 105.829 81.4 105.829 82.264C105.829 82.984 106.165 83.344 106.837 83.344ZM134.603 77.08C134.603 77.224 134.351 77.668 133.847 78.412C133.367 79.156 132.875 79.828 132.371 80.428C131.123 81.94 129.995 83.104 128.987 83.92C128.003 84.736 126.971 85.144 125.891 85.144C124.979 85.144 124.223 84.748 123.623 83.956C123.047 83.164 122.759 82.252 122.759 81.22C122.759 79.684 123.167 77.74 123.983 75.388C124.799 73.036 125.831 70.996 127.079 69.268C128.327 67.54 129.575 66.676 130.823 66.676C131.351 66.676 131.807 66.868 132.191 67.252C132.407 67.468 132.611 67.756 132.803 68.116C132.995 68.476 133.091 68.8 133.091 69.088C133.091 69.496 133.031 69.976 132.911 70.528C132.815 71.056 132.707 71.32 132.587 71.32C132.347 71.32 132.191 71.188 132.119 70.924C132.047 70.66 131.999 70.324 131.975 69.916C131.903 69.292 131.831 68.884 131.759 68.692C131.687 68.476 131.579 68.368 131.435 68.368C130.307 68.368 129.215 69.16 128.159 70.744C127.103 72.304 126.239 74.128 125.567 76.216C124.895 78.28 124.559 79.876 124.559 81.004C124.559 82.588 125.087 83.38 126.143 83.38C126.911 83.38 127.607 83.188 128.231 82.804C128.879 82.42 129.551 81.88 130.247 81.184C131.543 79.864 132.551 78.724 133.271 77.764C133.319 77.692 133.451 77.512 133.667 77.224C133.907 76.912 134.075 76.756 134.171 76.756C134.459 76.756 134.603 76.864 134.603 77.08ZM150.663 75.82C150.831 75.82 150.915 76 150.915 76.36C150.915 76.792 150.591 77.74 149.943 79.204C149.319 80.668 148.359 82.024 147.063 83.272C145.791 84.52 144.219 85.144 142.347 85.144C140.811 85.144 139.527 84.664 138.495 83.704C137.463 82.744 136.947 81.268 136.947 79.276C136.947 77.404 137.379 75.556 138.243 73.732C139.107 71.884 140.235 70.384 141.627 69.232C143.019 68.056 144.459 67.468 145.947 67.468C146.835 67.468 147.579 67.672 148.179 68.08C148.803 68.464 149.115 69.028 149.115 69.772C149.115 70.612 148.635 71.428 147.675 72.22C146.739 73.012 145.515 73.708 144.003 74.308C142.491 74.908 140.931 75.34 139.323 75.604C139.035 76.708 138.891 77.788 138.891 78.844C138.891 80.236 139.215 81.316 139.863 82.084C140.535 82.852 141.483 83.236 142.707 83.236C144.555 83.236 146.055 82.576 147.207 81.256C148.359 79.936 149.319 78.448 150.087 76.792C150.135 76.696 150.219 76.516 150.339 76.252C150.459 75.964 150.567 75.82 150.663 75.82ZM147.495 70.168C147.495 69.784 147.291 69.484 146.883 69.268C146.499 69.052 146.043 68.944 145.515 68.944C144.603 68.944 143.727 69.244 142.887 69.844C142.047 70.444 141.339 71.164 140.763 72.004C140.211 72.844 139.851 73.588 139.683 74.236C140.787 74.116 141.951 73.804 143.175 73.3C144.399 72.796 145.419 72.244 146.235 71.644C147.075 71.044 147.495 70.552 147.495 70.168Z" fill="white"/>
</svg>
